<svg xmlns="http://www.w3.org/2000/svg" viewBox="0 0 96 96" role="img" aria-label="一把褪色、有修补痕迹的旧红伞">
  <defs>
    <linearGradient id="canopy" x1="0" x2="1" y1="0" y2="1">
      <stop offset="0" stop-color="#a86461" />
      <stop offset="1" stop-color="#765255" />
    </linearGradient>
  </defs>
  <path d="M18 35C21 17 35 8 50 8s29 9 32 27c-8-5-14-4-20 2-7-7-17-7-24 0-6-6-12-7-20-2Z" fill="url(#canopy)" stroke="#2f2b28" stroke-width="3" stroke-linejoin="round" />
  <path d="M50 9v56" fill="none" stroke="#2f2b28" stroke-width="4" stroke-linecap="round" />
  <path d="M50 64v11c0 9 13 10 16 1" fill="none" stroke="#756253" stroke-width="6" stroke-linecap="round" />
  <path d="M29 23c5-7 11-10 18-11l-4 18c-5-1-9 0-13 3Z" fill="#69484b" opacity=".84" />
  <path d="m31 24 11 6M35 18l10 6" fill="none" stroke="#eee7d8" stroke-width="1.5" stroke-dasharray="2 3" opacity=".68" />
  <path d="M18 35h64" fill="none" stroke="#d9bbb0" stroke-width="1.5" opacity=".42" />
</svg>
