<svg xmlns="http://www.w3.org/2000/svg" width="1280" height="720" viewBox="0 0 1280 720">
  <defs>
    <pattern id="bedroom-floor" width="96" height="48" patternUnits="userSpaceOnUse">
      <rect width="96" height="48" fill="#b9a88f"/>
      <path d="M0 47.5h96M48 0v48" stroke="#78695d" stroke-opacity=".2"/>
      <path d="M8 15c18-7 36 5 57-2 12-4 22-2 31 2" fill="none" stroke="#eadfc8" stroke-opacity=".2"/>
    </pattern>
    <pattern id="living-floor" width="128" height="48" patternUnits="userSpaceOnUse">
      <rect width="128" height="48" fill="#ad9a80"/>
      <path d="M0 47.5h128M64 0v48" stroke="#756253" stroke-opacity=".22"/>
      <path d="M11 17c21-9 42 6 66-2 17-6 34-3 51 2" fill="none" stroke="#eee7d8" stroke-opacity=".16"/>
    </pattern>
    <pattern id="kitchen-floor" width="64" height="64" patternUnits="userSpaceOnUse">
      <rect width="64" height="64" fill="#a7aca2"/>
      <path d="M64 0H0v64" fill="none" stroke="#68716b" stroke-opacity=".35" stroke-width="2"/>
      <path d="M4 4h56v56H4z" fill="none" stroke="#eee7d8" stroke-opacity=".18"/>
    </pattern>
    <pattern id="hall-floor" width="80" height="80" patternUnits="userSpaceOnUse">
      <rect width="80" height="80" fill="#9d8b73"/>
      <path d="M0 40h80M40 0v80" stroke="#6f6256" stroke-opacity=".2"/>
    </pattern>
    <filter id="paper"><feTurbulence baseFrequency=".7" numOctaves="2" seed="19"/><feColorMatrix values="1 0 0 0 0 0 1 0 0 0 0 0 1 0 0 0 0 0 .055 0"/></filter>
    <linearGradient id="morning" x1="1" y1="0" x2="0" y2="1"><stop stop-color="#f7f3e8" stop-opacity=".58"/><stop offset="1" stop-color="#d6c58e" stop-opacity="0"/></linearGradient>
  </defs>

  <rect width="1280" height="720" fill="#554a43"/>
  <rect x="32" y="32" width="1216" height="656" rx="10" fill="url(#hall-floor)"/>
  <path d="M44 44h344v364H44z" fill="url(#bedroom-floor)"/>
  <path d="M412 44h456v364H412z" fill="url(#living-floor)"/>
  <path d="M892 44h344v364H892z" fill="url(#kitchen-floor)"/>
  <path d="M44 432h344v244H44z" fill="#8c806e"/>
  <path d="M412 432h824v244H412z" fill="url(#hall-floor)"/>

  <g fill="#665950">
    <rect x="20" y="20" width="1240" height="24" rx="8"/>
    <rect x="20" y="676" width="1240" height="24" rx="8"/>
    <rect x="20" y="20" width="24" height="680" rx="8"/>
    <rect x="1236" y="20" width="24" height="282" rx="8"/>
    <rect x="1236" y="420" width="24" height="280" rx="8"/>

    <rect x="388" y="20" width="24" height="242" rx="5"/>
    <rect x="388" y="338" width="24" height="94" rx="5"/>
    <rect x="868" y="20" width="24" height="244" rx="5"/>
    <rect x="868" y="340" width="24" height="92" rx="5"/>
    <rect x="20" y="408" width="578" height="24" rx="5"/>
    <rect x="718" y="408" width="542" height="24" rx="5"/>
    <rect x="388" y="408" width="24" height="94" rx="5"/>
    <rect x="388" y="588" width="24" height="112" rx="5"/>
  </g>

  <g fill="none" stroke="#eee7d8" stroke-opacity=".28" stroke-width="2">
    <path d="M32 32h1216M32 688h1216M32 32v656"/>
    <path d="M400 32v230m0 76v82m480-388v232m0 76v80M32 420h566m120 0h530M400 420v82m0 86v100"/>
  </g>

  <g aria-label="architectural window" fill="#637c87" stroke="#2f2b28" stroke-width="4">
    <rect x="960" y="24" width="220" height="24" rx="5"/>
    <path d="M1070 26v20" stroke="#eee7d8" stroke-opacity=".6"/>
  </g>

  <path d="M1236 44H920L710 408h526z" fill="url(#morning)"/>
  <rect width="1280" height="720" filter="url(#paper)" opacity=".72"/>
  <path d="M32 32h1216v656H32z" fill="none" stroke="#eee7d8" stroke-opacity=".32" stroke-width="3"/>
</svg>
